<svg width="6200" height="896" viewBox="0 0 6200 896" fill="none" xmlns="http://www.w3.org/2000/svg">
<path d="M104.4 314C99.6996 309.2 93.9996 306.8 88.5996 306.8C81.5996 306.8 74.7996 310.6 70.3996 318L38.6996 370.8L6.89961 423.7C-1.00039 436.9 -1.00039 458.5 6.89961 471.7L38.5996 524.5L70.2996 577.3C74.6996 584.7 81.4996 588.5 88.4996 588.5C93.9996 588.5 99.5996 586.1 104.3 581.3C104.3 581.3 169.5 515 171.6 450.7C171.6 449.7 171.7 448.6 171.7 447.6C171.7 446.6 171.7 445.5 171.6 444.5C169.6 380.3 104.4 314 104.4 314Z" fill="#DF283F"/>
<path d="M1053.3 423.7L1021.6 370.9L989.9 318.1C985.5 310.7 978.7 306.9 971.7 306.9C966.2 306.9 960.6 309.3 955.9 314.1C955.9 314.1 890.7 380.4 888.6 444.7C888.6 445.7 888.5 446.8 888.5 447.8C888.5 448.8 888.5 449.9 888.6 450.9C890.7 515.2 955.9 581.5 955.9 581.5C960.6 586.3 966.3 588.7 971.7 588.7C978.7 588.7 985.4 584.9 989.9 577.5L1021.6 524.7L1053.3 471.9C1061.3 458.5 1061.3 436.9 1053.3 423.7Z" fill="#1C4A87"/>
<path d="M686.9 447.7C686.9 361.1 616.7 290.9 530.1 290.9C443.5 290.9 373.3 361.1 373.3 447.7C373.3 534.3 443.5 604.5 530.1 604.5C616.7 604.5 686.9 534.3 686.9 447.7Z" fill="#1C4A87"/>
<path d="M798.9 179C800.2 179 801.4 178.9 802.7 178.9C835 177.9 865.4 164.6 865.4 164.6C879.5 158.4 884.6 142.6 876.7 129.4L845 76.6L813.3 23.9C805.4 10.7 786.3 0 770.9 0H647.7C632.3 0 624.8 11.4 631.1 25.4C631.2 25.4 700 179 798.9 179Z" fill="#128669"/>
<path d="M194.8 164.6C194.8 164.6 225.2 177.8 257.5 178.8C258.8 178.8 260 178.9 261.3 178.9C360.3 178.9 429.1 25.3 429.1 25.3C435.4 11.4 427.9 0 412.5 0H289.3C273.9 0 254.8 10.7 246.9 23.9L215.2 76.7L183.5 129.5C175.6 142.6 180.7 158.5 194.8 164.6Z" fill="#1C4A87"/>
<path d="M865.5 730.9C865.5 730.9 835.1 717.6 802.8 716.6C801.5 716.6 800.3 716.5 799 716.5C700 716.5 631.2 870.3 631.2 870.3C624.9 884.4 632.4 896 647.8 896H771C786.4 896 805.5 885.1 813.4 871.9L845 819L876.7 766.1C884.7 752.9 879.6 737 865.5 730.9Z" fill="#1D8DCD"/>
<path d="M261.3 716.6C260 716.6 258.8 716.6 257.5 716.6C225.2 717.6 194.8 730.8 194.8 730.8C180.7 737 175.6 752.8 183.5 766L215.2 818.8L246.9 871.8C254.8 885 273.9 895.9 289.3 895.9H412.5C427.9 895.9 435.4 884.3 429.1 870.2C429.1 870.3 360.3 716.6 261.3 716.6Z" fill="#1C4A87"/>
<path d="M1913.8 203.6C1846.7 138.1 1763.7 105.3 1664.9 105.3C1566.1 105.3 1483.1 138 1416 203.6C1348.9 269.1 1315.3 350.8 1315.3 448.7C1315.3 546.6 1348.9 628.2 1416 693.8C1483.1 759.3 1566.1 792.1 1664.9 792.1C1763.7 792.1 1846.7 759.3 1913.8 693.8C1980.9 628.2 2014.5 546.6 2014.5 448.7C2014.5 350.8 1980.9 269.1 1913.8 203.6ZM1899.6 448.7C1899.6 515.5 1876.9 572.4 1831.7 619.2C1786.4 666.1 1730.8 689.5 1665 689.5C1599.1 689.5 1543.5 666.1 1498.3 619.2C1453 572.3 1430.4 515.5 1430.4 448.7C1430.4 381.9 1453 325.1 1498.3 278.2C1543.6 231.3 1599.1 207.9 1665 207.9C1730.9 207.9 1786.4 231.3 1831.7 278.2C1876.9 325 1899.6 381.8 1899.6 448.7Z" fill="#DF283F"/>
<path d="M2740.3 128L2539.8 545.1L2339.4 128H2164V792H2276V273.4L2507.5 734H2570.2L2802 273.4V792H2914V128H2740.3Z" fill="#128669"/>
<path d="M3235 687V509H3553V409H3235V233H3589V128H3123V792H3601V687H3235Z" fill="#1D8DCD"/>
<path d="M4158.6 550.7C4254.2 522.2 4302 453.2 4302 343.6C4302 268.2 4280.1 213.4 4236.5 179.2C4192.9 145 4120.3 128 4019 128H3771V792H3884V569H4031.3L4190 792H4332.5L4158.6 550.7ZM3884 230H4026.6C4086.8 230 4128.6 237.9 4152 254.1C4175.4 270.2 4187.1 299.9 4187.1 343.3C4187.1 386.7 4175.7 418.1 4152.9 437.7C4130.1 457.3 4087 467 4023.7 467H3884V230Z" fill="#1C4A87"/>
<path d="M5037.4 203.6C4970.3 138.1 4887.3 105.3 4788.5 105.3C4689.7 105.3 4606.7 138.1 4539.6 203.6C4472.5 269.1 4438.9 350.8 4438.9 448.7C4438.9 546.6 4472.5 628.2 4539.6 693.8C4606.7 759.3 4689.7 792.1 4788.5 792.1C4887.3 792.1 4970.3 759.3 5037.4 693.8C5104.5 628.2 5138.1 546.6 5138.1 448.7C5138.1 350.8 5104.5 269.1 5037.4 203.6ZM5023.1 448.7C5023.1 515.5 5000.4 572.4 4955.2 619.2C4909.9 666.1 4854.3 689.5 4788.5 689.5C4722.6 689.5 4667 666.1 4621.8 619.2C4576.5 572.3 4553.9 515.5 4553.9 448.7C4553.9 381.9 4576.5 325.1 4621.8 278.2C4667.1 231.3 4722.6 207.9 4788.5 207.9C4854.4 207.9 4909.9 231.3 4955.2 278.2C5000.5 325 5023.1 381.8 5023.1 448.7Z" fill="#1C4A87"/>
<path d="M5229.96 801.273C5222.95 801.273 5216.94 798.763 5211.92 793.744C5206.9 788.725 5204.39 782.712 5204.39 775.705C5204.39 768.697 5206.9 762.684 5211.92 757.665C5216.94 752.646 5222.95 750.136 5229.96 750.136C5236.96 750.136 5242.98 752.646 5248 757.665C5253.02 762.684 5255.53 768.697 5255.53 775.705C5255.53 780.345 5254.34 784.606 5251.97 788.489C5249.7 792.371 5246.62 795.496 5242.74 797.864C5238.95 800.136 5234.69 801.273 5229.96 801.273ZM5372.82 799L5293.27 508.091H5329.07L5389.86 745.023H5392.7L5454.64 508.091H5494.41L5556.34 745.023H5559.18L5619.98 508.091H5655.77L5576.23 799H5539.86L5475.66 567.182H5473.39L5409.18 799H5372.82ZM5699.41 799V508.091H5874.98V539.341H5734.64V637.636H5865.89V668.886H5734.64V767.75H5877.26V799H5699.41ZM5938.23 799V508.091H6039.93C6060.2 508.091 6076.91 511.595 6090.07 518.602C6103.24 525.515 6113.04 534.843 6119.48 546.585C6125.92 558.233 6129.14 571.159 6129.14 585.364C6129.14 597.864 6126.91 608.186 6122.46 616.33C6118.1 624.473 6112.33 630.913 6105.13 635.648C6098.03 640.383 6090.31 643.886 6081.98 646.159V649C6090.88 649.568 6099.83 652.693 6108.82 658.375C6117.82 664.057 6125.35 672.201 6131.41 682.807C6137.47 693.413 6140.5 706.386 6140.5 721.727C6140.5 736.311 6137.19 749.426 6130.56 761.074C6123.93 772.722 6113.46 781.955 6099.16 788.773C6084.87 795.591 6066.26 799 6043.34 799H5938.23ZM5973.45 767.75H6043.34C6066.35 767.75 6082.69 763.299 6092.35 754.398C6102.1 745.402 6106.98 734.511 6106.98 721.727C6106.98 711.879 6104.47 702.788 6099.45 694.455C6094.43 686.027 6087.28 679.303 6078 674.284C6068.72 669.17 6057.73 666.614 6045.05 666.614H5973.45V767.75ZM5973.45 635.932H6038.8C6049.4 635.932 6058.97 633.848 6067.49 629.682C6076.11 625.515 6082.92 619.644 6087.94 612.068C6093.06 604.492 6095.61 595.591 6095.61 585.364C6095.61 572.58 6091.16 561.737 6082.26 552.835C6073.36 543.839 6059.25 539.341 6039.93 539.341H5973.45V635.932Z" fill="black" fill-opacity="0.66"/>
</svg>
